<svg width="108" height="108" viewBox="0 0 108 108" xmlns="http://www.w3.org/2000/svg">
  <defs>
    <linearGradient id="bgGrad" x1="0%" y1="0%" x2="100%" y2="100%">
      <stop offset="0%" style="stop-color:#4CAF50;stop-opacity:1" />
      <stop offset="100%" style="stop-color:#2E7D32;stop-opacity:1" />
    </linearGradient>
  </defs>
  
  <!-- Background circle -->
  <circle cx="54" cy="54" r="54" fill="url(#bgGrad)"/>
  
  <!-- Apple shape -->
  <path d="M54 20 C40 20 28 32 28 46 C28 60 40 72 54 72 C68 72 80 60 80 46 C80 32 68 20 54 20 Z" fill="#FF5722" stroke="#D84315" stroke-width="1"/>
  
  <!-- Apple leaf -->
  <path d="M54 20 C56 16 60 14 64 16 C66 17 65 20 62 22 C60 21 56 19 54 20 Z" fill="#4CAF50" stroke="#2E7D32" stroke-width="0.5"/>
  
  <!-- AI Brain icon -->
  <circle cx="54" cy="88" r="12" fill="#2196F3" stroke="#1565C0" stroke-width="1"/>
  
  <!-- Neural network lines -->
  <g stroke="#FFFFFF" stroke-width="1" fill="none">
    <circle cx="48" cy="84" r="2" fill="#FFFFFF"/>
    <circle cx="60" cy="84" r="2" fill="#FFFFFF"/>
    <circle cx="54" cy="92" r="2" fill="#FFFFFF"/>
    <line x1="48" y1="84" x2="60" y2="84"/>
    <line x1="48" y1="84" x2="54" y2="92"/>
    <line x1="60" y1="84" x2="54" y2="92"/>
  </g>
</svg>